<?xml version="1.0" encoding="UTF-8"?>
<svg width="700pt" height="700pt" version="1.1" viewBox="0 0 700 700" xmlns="http://www.w3.org/2000/svg">
 <g>
  <path d="m321.89 105.35 5.4766-5.4766v-0.003906c3.3789-3.2578 5.3008-7.7422 5.3438-12.434 0.039062-4.6953-1.8047-9.207-5.125-12.527-3.3203-3.3203-7.832-5.1641-12.527-5.125-4.6914 0.042969-9.1758 1.9648-12.434 5.3438l-35 35c-3.2812 3.2812-5.125 7.7305-5.125 12.371s1.8438 9.0898 5.125 12.371l35 35c4.4453 4.293 10.824 5.9258 16.785 4.293 5.957-1.6367 10.613-6.293 12.25-12.25 1.6328-5.9609 0-12.34-4.293-16.785l-4.7422-4.7422c55.312 2.6094 105.19 34.09 131.33 82.906 26.145 48.812 24.715 107.77-3.7656 155.26-28.48 47.492-79.82 76.52-135.2 76.445h-192.5c-6.2539 0-12.031 3.3359-15.156 8.75s-3.125 12.086 0 17.5 8.9023 8.75 15.156 8.75h192.5c50.523 0.14844 99.074-19.582 135.17-54.934 36.094-35.352 56.836-83.48 57.738-134 0.90625-50.512-18.094-99.355-52.902-135.98-34.805-36.621-82.617-58.082-133.11-59.742z"/>
  <path d="m589.87 460.13-35-35c-4.4453-4.293-10.824-5.9258-16.785-4.293-5.957 1.6367-10.613 6.293-12.25 12.25-1.6328 5.9609 0 12.34 4.293 16.785l5.1289 5.1289h-62.758c-6.2539 0-12.031 3.3359-15.156 8.75s-3.125 12.086 0 17.5 8.9023 8.75 15.156 8.75h62.754l-5.1289 5.1289h0.003906c-3.3789 3.2578-5.3008 7.7422-5.3438 12.434-0.039062 4.6953 1.8047 9.207 5.125 12.527 3.3203 3.3203 7.832 5.1641 12.527 5.125 4.6914-0.042969 9.1758-1.9648 12.434-5.3438l35-35c3.2812-3.2812 5.125-7.7305 5.125-12.371s-1.8438-9.0898-5.125-12.371z"/>
  <path d="m175.19 420c4.3555 0 8.5547-1.625 11.777-4.5547 3.2227-2.9297 5.2344-6.957 5.6445-11.293 0.41406-4.3359-0.80859-8.668-3.4219-12.152-20.629-27.18-31.766-60.379-31.691-94.5 0.070312-56.199 30.078-108.1 78.75-136.2 5.4219-3.125 8.7617-8.9062 8.7656-15.164 0.003906-6.2578-3.332-12.039-8.75-15.172-5.418-3.1328-12.094-3.1328-17.516-0.007813-29.23 16.891-53.512 41.168-70.402 70.398-16.895 29.23-25.809 62.387-25.848 96.148-0.09375 41.699 13.5 82.273 38.691 115.5 3.3047 4.4062 8.4922 7 14 7z"/>
 </g>
</svg>
