<?xml version="1.0" encoding="UTF-8"?>
<svg width="700pt" height="700pt" version="1.1" viewBox="0 0 700 700" xmlns="http://www.w3.org/2000/svg">
 <g>
  <path d="m210 437.5c-38.605 0-70-31.395-70-70s31.395-70 70-70 70 31.395 70 70-31.395 70-70 70zm0-105c-19.293 0-35 15.707-35 35s15.707 35 35 35 35-15.707 35-35-15.707-35-35-35z"/>
  <path d="m297.5 525h-175c-9.6719 0-17.5-7.8281-17.5-17.5 0-38.605 31.48-70 70.188-70h69.625c38.707 0 70.188 31.395 70.188 70 0 9.6719-7.8281 17.5-17.5 17.5zm-152.79-35h130.57c-6.1016-10.461-17.465-17.5-30.473-17.5h-69.621c-13.004 0-24.367 7.0391-30.473 17.5z"/>
  <path d="m560.19 525h-175.38c-19.191 0-34.812-15.707-34.812-35 0-9.6719 7.8281-17.5 17.5-17.5h210c9.6719 0 17.5 7.8281 17.5 17.5 0 19.293-15.621 35-34.812 35z"/>
  <path d="m560 490c-9.6719 0-17.5-7.8281-17.5-17.5v-70h-140v70c0 9.6719-7.8281 17.5-17.5 17.5s-17.5-7.8281-17.5-17.5v-87.5c0-9.6719 7.8281-17.5 17.5-17.5h175c9.6719 0 17.5 7.8281 17.5 17.5v87.5c0 9.6719-7.8281 17.5-17.5 17.5z"/>
  <path d="m437.81 284.07c-3.0781 0-6.1172-0.80469-8.8164-2.375l-20.234-11.793c-8.3398-4.8711-11.16-15.586-6.3086-23.945 4.8867-8.3398 15.566-11.141 23.945-6.3086l4.9922 2.9219 17.297-30.25-5.2148-3.043c-6.375-3.707-9.7266-11.004-8.4258-18.254 1.043-5.6719 1.5391-10.922 1.5391-16.031s-0.49609-10.355-1.5391-16.031c-1.2969-7.2461 2.0508-14.543 8.4258-18.254l5.2148-3.043-17.297-30.25-4.9922 2.9219c-6.4961 3.7266-14.594 3.0078-20.25-1.8789-8.0312-6.9375-17.246-12.285-27.328-15.895-6.9727-2.4766-11.621-9.0742-11.621-16.473l-0.003906-6.0859h-34.383v6.1016c0 7.4023-4.6484 13.996-11.621 16.473-10.082 3.6055-19.293 8.9531-27.328 15.895-5.6211 4.9062-13.758 5.6406-20.25 1.8789l-4.9922-2.9219-17.297 30.25 5.2148 3.043c6.375 3.707 9.7266 11.004 8.4258 18.254-1.043 5.6719-1.5391 10.918-1.5391 16.027s0.49609 10.355 1.5391 16.031c1.2969 7.2461-2.0508 14.543-8.4258 18.254l-5.2148 3.043 17.297 30.25 4.9922-2.9219c8.4102-4.8359 19.055-2.0352 23.945 6.3086 4.8516 8.3555 2.0352 19.07-6.3086 23.945l-20.234 11.793c-4.0352 2.3594-8.8516 2.9727-13.348 1.7773-4.5117-1.2109-8.3398-4.1719-10.664-8.2031l-34.691-60.633c-4.7695-8.3555-1.9141-18.988 6.3906-23.824l10.152-5.9141c-0.29297-3.3438-0.42969-6.625-0.42969-9.9062s0.13672-6.5625 0.42578-9.8945l-10.148-5.9141c-8.3047-4.8359-11.16-15.465-6.3945-23.82l34.691-60.633c2.3242-4.0352 6.1523-6.9883 10.664-8.2031 4.4922-1.1953 9.3125-0.5625 13.348 1.7773l10.047 5.8633c5.3164-3.6758 10.902-6.9219 16.746-9.7266l0.003907-11.949c0-9.6719 7.8281-17.5 17.5-17.5h69.383c9.6719 0 17.5 7.8281 17.5 17.5v11.945c5.8438 2.8047 11.434 6.0508 16.746 9.7266l10.047-5.8633c4.0508-2.3398 8.8359-2.9727 13.348-1.7773 4.5117 1.2109 8.3398 4.1719 10.664 8.2031l34.691 60.633c4.7695 8.3555 1.9141 18.988-6.3906 23.824l-10.152 5.9141c0.30078 3.332 0.4375 6.6133 0.4375 9.8945s-0.13672 6.5625-0.42578 9.8945l10.152 5.9141c8.3047 4.8359 11.16 15.465 6.3906 23.824l-34.691 60.633c-2.3242 4.0352-6.1523 6.9883-10.664 8.2031-1.4922 0.39453-3.0117 0.59766-4.5312 0.59766z"/>
  <path d="m351.09 227.5c-28.949 0-52.5-23.551-52.5-52.5s23.551-52.5 52.5-52.5 52.5 23.551 52.5 52.5-23.551 52.5-52.5 52.5zm0-70c-9.6562 0-17.5 7.8438-17.5 17.5s7.8438 17.5 17.5 17.5 17.5-7.8438 17.5-17.5-7.8438-17.5-17.5-17.5z"/>
  <path d="m315 385h-35c-9.6719 0-17.5-7.8281-17.5-17.5s7.8281-17.5 17.5-17.5h17.5v-70c0-9.6719 7.8281-17.5 17.5-17.5s17.5 7.8281 17.5 17.5v87.5c0 9.6719-7.8281 17.5-17.5 17.5z"/>
  <path d="m472.5 385c-9.6719 0-17.5-7.8281-17.5-17.5v-17.5h-70c-9.6719 0-17.5-7.8281-17.5-17.5v-52.5c0-9.6719 7.8281-17.5 17.5-17.5s17.5 7.8281 17.5 17.5v35h70c9.6719 0 17.5 7.8281 17.5 17.5v35c0 9.6719-7.8281 17.5-17.5 17.5z"/>
 </g>
</svg>
