<?xml version="1.0" encoding="UTF-8" standalone="no"?> <svg xmlns="http://www.w3.org/2000/svg" viewBox="0 0 64 64"><g id="Fill_Outline" data-name="Fill Outline"><rect x="19" y="18.979" width="26" height="8" style="fill:#b3b3b3"/><path d="M21,2.979H43a2,2,0,0,1,2,2v14a0,0,0,0,1,0,0H19a0,0,0,0,1,0,0v-14A2,2,0,0,1,21,2.979Z" style="fill:#534741"/><path d="M19,26.979v4A7.02,7.02,0,0,0,26.021,38h0a2.241,2.241,0,0,1,2.223,1.963l.162,1.294a49.993,49.993,0,0,1,.273,9.513l-.4,6.074a3.848,3.848,0,0,0,3.393,4.142,3.743,3.743,0,0,0,4.064-3.977l-.416-6.24a49.972,49.972,0,0,1,.273-9.511l.162-1.3A2.241,2.241,0,0,1,37.976,38h0A7.02,7.02,0,0,0,45,30.979v-4ZM32,58a1,1,0,1,1,1-1A1,1,0,0,1,32,58Z" style="fill:#039791"/><path d="M19,5v7a3,3,0,0,0,3,3h0a3,3,0,0,0,3-3V10a2,2,0,0,1,2-2h0a2,2,0,0,1,2,2v1a2,2,0,0,0,2,2h0a2,2,0,0,0,2-2V10a2,2,0,0,1,2-2h0a2,2,0,0,1,2,2V21a2,2,0,0,0,2,2h0a2,2,0,0,0,2-2V12a2,2,0,0,1,2-2h0a2,2,0,0,0,2-2V4.981a2,2,0,0,0-2-2L21,3A2,2,0,0,0,19,5Z" style="fill:#fbb03b"/></g><g id="Outline"><circle cx="32" cy="57" r="2"/><path d="M45.94,4.383c-.013-.063-.039-.121-.055-.182a2.965,2.965,0,0,0-.119-.382c-.026-.062-.064-.116-.094-.176a2.86,2.86,0,0,0-.183-.335,3.026,3.026,0,0,0-.356-.433l-.012-.016h0a3.023,3.023,0,0,0-.45-.37c-.075-.051-.158-.085-.237-.129a3.056,3.056,0,0,0-.277-.148c-.074-.031-.153-.046-.23-.071a2.756,2.756,0,0,0-.335-.1c-.016,0-.033,0-.049-.005A3.018,3.018,0,0,0,43,1.979H21a3,3,0,0,0-3,3v26A8.03,8.03,0,0,0,26.024,39a1.242,1.242,0,0,1,1.231,1.087l.162,1.294a49.236,49.236,0,0,1,.268,9.322l-.406,6.075a4.846,4.846,0,0,0,4.306,5.2c.137.012.272.018.408.018a4.74,4.74,0,0,0,4.738-5.058L36.315,50.7a49.207,49.207,0,0,1,.268-9.321l.162-1.295A1.243,1.243,0,0,1,37.979,39,8.03,8.03,0,0,0,46,30.979v-26c0-.019-.005-.037-.006-.057A3,3,0,0,0,45.94,4.383ZM20,15.444A3.959,3.959,0,0,0,22,16a4,4,0,0,0,4-4V10a1,1,0,0,1,2,0v1a3,3,0,0,0,6,0V10a1,1,0,0,1,2,0v7.979H20ZM20,5a1,1,0,0,1,1-1l22-.017h0a.983.983,0,0,1,.366.073l.017,0a1,1,0,0,1,.324.217.9.9,0,0,1,.277.629A.72.72,0,0,1,44,4.981V8a1,1,0,0,1-1,1,3,3,0,0,0-3,3v9a1,1,0,0,1-2,0V10a3,3,0,0,0-6,0v1a1,1,0,0,1-2,0V10a3,3,0,0,0-6,0v2a2,2,0,0,1-4,0Zm0,14.981H36V21a3,3,0,0,0,6,0V19.979h2v6H20Zm24-2H42V12a1,1,0,0,1,1-1,2.966,2.966,0,0,0,1-.184Zm0,13A6.028,6.028,0,0,1,37.976,37a3.244,3.244,0,0,0-3.215,2.839l-.162,1.3a51.145,51.145,0,0,0-.279,9.7l.416,6.239a2.74,2.74,0,0,1-.816,2.141,2.712,2.712,0,0,1-2.165.774,2.841,2.841,0,0,1-2.481-3.079l.406-6.075a51.172,51.172,0,0,0-.279-9.7l-.162-1.294A3.245,3.245,0,0,0,26.021,37,6.028,6.028,0,0,1,20,30.979v-3H44Z"/></g></svg>